<svg width="61" height="60" viewBox="0 0 61 60" fill="none" xmlns="http://www.w3.org/2000/svg">
<g clip-path="url(#clip0_420_523)">
<path d="M30.5005 34.9448C27.1646 34.9448 24.3437 37.192 23.4717 40.2519H37.5294C36.6573 37.1919 33.8363 34.9448 30.5005 34.9448Z" fill="#8AC8BA"/>
<path d="M30.5001 23.1888C31.9633 23.1888 33.1536 21.9984 33.1536 20.5353C33.1536 19.0722 31.9632 17.8818 30.5001 17.8818C29.0371 17.8818 27.8467 19.0722 27.8467 20.5353C27.8467 21.9984 29.0369 23.1888 30.5001 23.1888Z" fill="#8AC8BA"/>
<path d="M30.5 0C22.7753 8.0172 11.7917 12.2711 0.5 10.4044C2.1148 51.518 30.5 60 30.5 60C30.5 60 58.8852 51.518 60.5 10.4044C49.2083 12.2711 38.2247 8.0172 30.5 0ZM30.5 13.8817C34.1688 13.8817 37.1535 16.8665 37.1535 20.5352C37.1535 24.2039 34.1688 27.1887 30.5 27.1887C26.8312 27.1887 23.8465 24.2039 23.8465 20.5352C23.8465 16.8665 26.8312 13.8817 30.5 13.8817ZM41.8071 44.2516H19.1929V42.2516C19.1929 36.0169 24.2652 30.9445 30.5 30.9445C36.7348 30.9445 41.8071 36.0168 41.8071 42.2516V44.2516Z" fill="#008768"/>
</g>
<defs>
<clipPath id="clip0_420_523">
<rect width="60" height="60" fill="white" transform="translate(0.5)"/>
</clipPath>
</defs>
</svg>
