<svg width="185" height="55" viewBox="0 0 185 55" fill="none" xmlns="http://www.w3.org/2000/svg">
<path d="M24.808 29.232L28.912 19.2H33.664L24.808 37.056L15.976 19.2H20.704L24.808 29.232ZM35.4244 19.2H39.5524V36H35.4244V19.2ZM45.7519 32.76L46.0399 29.664H54.3679L54.6319 32.76H45.7519ZM50.1439 25.368L47.7919 30.792L47.9839 31.68L45.8959 36H41.3119L50.1439 18.144L58.9999 36H54.3919L52.3759 31.848L52.5199 30.816L50.1439 25.368ZM63.7844 27.648V25.872H66.4964C66.9604 25.872 67.3524 25.8 67.6724 25.656C68.0084 25.512 68.2644 25.312 68.4404 25.056C68.6164 24.784 68.7044 24.456 68.7044 24.072C68.7044 23.496 68.5124 23.064 68.1284 22.776C67.7444 22.488 67.2004 22.344 66.4964 22.344H64.8164V32.856H66.8804C67.4084 32.856 67.8804 32.792 68.2964 32.664C68.7124 32.52 69.0404 32.296 69.2804 31.992C69.5364 31.672 69.6644 31.24 69.6644 30.696C69.6644 30.344 69.5924 30.04 69.4484 29.784C69.3044 29.528 69.1044 29.32 68.8484 29.16C68.5924 29 68.2964 28.888 67.9604 28.824C67.6404 28.744 67.2804 28.704 66.8804 28.704H63.7844V26.496H67.3364C68.1524 26.496 68.9444 26.584 69.7124 26.76C70.4804 26.936 71.1764 27.224 71.8004 27.624C72.4244 28.008 72.9204 28.504 73.2884 29.112C73.6724 29.704 73.8644 30.424 73.8644 31.272C73.8644 32.392 73.5924 33.296 73.0484 33.984C72.5204 34.672 71.7684 35.184 70.7924 35.52C69.8164 35.84 68.6644 36 67.3364 36H60.7604V19.2H66.9284C68.0964 19.2 69.1204 19.36 70.0004 19.68C70.8964 19.984 71.6004 20.456 72.1124 21.096C72.6404 21.72 72.9044 22.512 72.9044 23.472C72.9044 24.352 72.6404 25.104 72.1124 25.728C71.6004 26.352 70.8964 26.832 70.0004 27.168C69.1204 27.488 68.0964 27.648 66.9284 27.648H63.7844ZM76.6979 19.2H80.7539V32.52H87.4979V36H76.6979V19.2ZM92.0656 36V32.664H100.538V36H92.0656ZM92.0656 22.536V19.2H100.538V22.536H92.0656ZM92.0656 28.8V25.536H100.058V28.8H92.0656ZM89.3776 19.2H93.2656V36H89.3776V19.2ZM102.159 22.824V19.2H115.455V22.824H110.823V36H106.767V22.824H102.159ZM121.492 28.392H125.692L130.948 36H126.196L121.492 28.392ZM117.292 19.2H121.348V36H117.292V19.2ZM119.836 22.632V19.2H123.412C124.852 19.2 126.052 19.432 127.012 19.896C127.972 20.36 128.7 21.008 129.196 21.84C129.692 22.656 129.94 23.608 129.94 24.696C129.94 25.768 129.692 26.72 129.196 27.552C128.7 28.368 127.972 29.008 127.012 29.472C126.052 29.936 124.852 30.168 123.412 30.168H119.836V27.024H123.124C123.668 27.024 124.132 26.944 124.516 26.784C124.916 26.608 125.22 26.36 125.428 26.04C125.636 25.704 125.74 25.304 125.74 24.84C125.74 24.376 125.636 23.984 125.428 23.664C125.22 23.328 124.916 23.072 124.516 22.896C124.132 22.72 123.668 22.632 123.124 22.632H119.836ZM132.831 19.2H136.959V36H132.831V19.2ZM140.518 19.2H144.574V36H140.518V19.2ZM143.062 22.536V19.2H146.35C147.774 19.2 148.966 19.424 149.926 19.872C150.902 20.304 151.638 20.928 152.134 21.744C152.63 22.56 152.878 23.544 152.878 24.696C152.878 25.816 152.63 26.792 152.134 27.624C151.638 28.44 150.902 29.072 149.926 29.52C148.966 29.952 147.774 30.168 146.35 30.168H143.062V26.832H146.35C147.166 26.832 147.806 26.648 148.27 26.28C148.734 25.912 148.966 25.384 148.966 24.696C148.966 23.992 148.734 23.456 148.27 23.088C147.806 22.72 147.166 22.536 146.35 22.536H143.062ZM157.319 30.096C157.655 30.704 158.031 31.232 158.447 31.68C158.879 32.128 159.343 32.472 159.839 32.712C160.351 32.952 160.887 33.072 161.447 33.072C162.039 33.072 162.527 32.928 162.911 32.64C163.295 32.336 163.487 31.928 163.487 31.416C163.487 30.984 163.375 30.64 163.151 30.384C162.927 30.112 162.567 29.856 162.071 29.616C161.575 29.376 160.919 29.104 160.103 28.8C159.703 28.656 159.239 28.456 158.711 28.2C158.199 27.944 157.711 27.616 157.247 27.216C156.783 26.8 156.399 26.304 156.095 25.728C155.791 25.136 155.639 24.424 155.639 23.592C155.639 22.6 155.895 21.744 156.407 21.024C156.935 20.304 157.639 19.76 158.519 19.392C159.415 19.008 160.407 18.816 161.495 18.816C162.615 18.816 163.583 19 164.399 19.368C165.231 19.736 165.919 20.2 166.463 20.76C167.007 21.32 167.423 21.888 167.711 22.464L164.615 24.192C164.375 23.792 164.095 23.448 163.775 23.16C163.471 22.856 163.127 22.624 162.743 22.464C162.375 22.288 161.975 22.2 161.543 22.2C160.967 22.2 160.527 22.328 160.223 22.584C159.919 22.824 159.767 23.128 159.767 23.496C159.767 23.88 159.911 24.216 160.199 24.504C160.503 24.792 160.927 25.056 161.471 25.296C162.031 25.536 162.703 25.792 163.487 26.064C164.079 26.288 164.631 26.552 165.143 26.856C165.655 27.144 166.103 27.496 166.487 27.912C166.887 28.328 167.199 28.808 167.423 29.352C167.647 29.896 167.759 30.52 167.759 31.224C167.759 32.072 167.583 32.832 167.231 33.504C166.895 34.16 166.431 34.712 165.839 35.16C165.263 35.608 164.599 35.944 163.847 36.168C163.111 36.408 162.351 36.528 161.567 36.528C160.479 36.528 159.463 36.336 158.519 35.952C157.591 35.552 156.783 35.016 156.095 34.344C155.407 33.672 154.871 32.936 154.487 32.136L157.319 30.096Z" fill="#008768"/>
</svg>
