
<svg width="52" height="45" viewBox="0 0 52 45" fill="none" xmlns="http://www.w3.org/2000/svg">
<g clip-path="url(#clip0_420_508)">
<path fill-rule="evenodd" clip-rule="evenodd" d="M0 0L25.993 44.9449L51.9861 0C40.55 1.04313 32.8049 2.73849 27.2145 14.72V14.7978L27.4201 20.8002L37.1176 18.9323C37.35 18.8721 37.4595 18.9568 37.4215 19.22L36.7904 20.5882L27.5932 26.1299L27.4201 30.1471C27.3195 31.5389 26.9895 33.294 26.2946 33.7133C25.545 33.333 25.0311 31.6025 24.925 30.1471L24.3737 26.1299L15.136 20.5882L14.5454 19.22C14.5086 18.9579 14.618 18.8732 14.8493 18.9323L24.5469 20.798L24.7527 14.8209C18.8622 2.45929 12.9336 1.49453 0 0Z" fill="#008768"/>
</g>
<defs>
<clipPath id="clip0_420_508">
<rect width="52" height="45" fill="white"/>
</clipPath>
</defs>
</svg>
